<svg width="71" height="38" viewBox="0 0 71 38" fill="none" xmlns="http://www.w3.org/2000/svg">
<path d="M3 16.5C1.61929 16.5 0.5 17.6193 0.5 19C0.5 20.3807 1.61929 21.5 3 21.5L3 16.5ZM69.7678 20.7678C70.7441 19.7915 70.7441 18.2085 69.7678 17.2322L53.8579 1.32233C52.8816 0.346015 51.2986 0.346016 50.3223 1.32233C49.346 2.29864 49.346 3.88155 50.3223 4.85786L64.4645 19L50.3223 33.1421C49.346 34.1184 49.346 35.7014 50.3223 36.6777C51.2986 37.654 52.8816 37.654 53.8579 36.6777L69.7678 20.7678ZM3 21.5L68 21.5L68 16.5L3 16.5L3 21.5Z" fill="#EEEEEE"/>
</svg>
